<svg viewBox="0 0 512 512" xmlns="http://www.w3.org/2000/svg"><path d="m268.148438 113.378906c.171874 0 .351562 0 .53125-.007812 5.5-.28125 9.75-4.992188 9.46875-10.5-.269532-5.320313-4.660157-9.492188-9.976563-9.492188-.171875 0-.351563.011719-.523437.019532-5.507813.28125-9.757813 4.992187-9.46875 10.5.269531 5.320312 4.648437 9.480468 9.96875 9.480468zm0 0"/><path d="m442.734375 396.003906s-91.316406-13.019531-91.324219-13.019531c-10.789062-1.535156-19.101562-10.183594-20.21875-21.023437l-1.820312-17.703126c4.886718-5.074218 9.535156-10.589843 13.921875-16.46875 13.761719-1.144531 25.683593-2.859374 35.351562-5.125 8.289063-1.941406 33.527344-7.851562 33.527344-25.496093 0-4.65625-3.222656-8.699219-7.761719-9.746094-.210937-.050781-12.582031-2.96875-33.035156-10.675781 9.691406-24.5 15.632812-50.984375 16.800781-76.617188 15.171875-25.238281 23.996094-51.910156 23.996094-74.394531 0-12.1875-2.601563-24.046875-7.601563-35.261719 2.289063-1.148437 4.496094-2.335937 6.605469-3.574218 22.714844-13.363282 34.722657-32.371094 34.722657-54.972657 0-8.714843-10.890626-13.25-17.070313-7.070312-28.433594 28.4375-93.226563.59375-115.789063-12.53125-16.167968-9.402344-38.597656-12.324219-56.929687-12.324219-27.484375 0-53.4375 7.90625-73.082031 22.261719-2.789063 2.039062-5.398438 4.171875-7.839844 6.390625-10.144531 4.441406-19.652344 9.738281-28.316406 15.867187-30.335938 21.4375-47.042969 50.28125-47.042969 81.21875 0 22.601563 8.917969 49.429688 24.234375 74.78125 1.222656 25.832031 7.296875 52.507813 17.152344 77.136719-19.421875 6.652344-33.230469 9.679688-33.484375 9.734375-4.609375.988281-7.902344 5.0625-7.902344 9.777344 0 17.59375 26.832031 23.5625 35.648437 25.523437 9.398438 2.089844 20.605469 3.707032 33.257813 4.84375 4.382813 5.894532 9.03125 11.425782 13.914063 16.519532l-1.851563 17.984374c-1.113281 10.832032-9.421875 19.46875-20.203125 21l-91.328125 12.964844c-38.257813.394532-69.265625 31.640625-69.265625 69.996094v36c0 5.523438 4.476562 10 10 10h492c5.523438 0 10-4.476562 10-10v-36c0-38.355469-31.003906-69.601562-69.265625-69.996094zm-50.5625-270.269531c0 10.199219-2.347656 21.738281-6.621094 33.699219-4.015625-21.1875-12.269531-39.625-24.480469-54.660156 8.984376-1.84375 17.324219-4.054688 24.972657-6.640626 4.027343 8.847657 6.128906 18.132813 6.128906 27.601563zm-209.144531 10.867187c19.644531 14.351563 45.597656 22.261719 73.082031 22.261719 38.066406 0 72.4375-15.53125 90.863281-39.492187 13.933594 18.214844 21.421875 42.382812 21.421875 71.515625 0 25.601562-5.625 53.074219-15.636719 78.378906-11.234374-4.789063-23.914062-10.675781-37.679687-17.867187-31.234375-16.324219-50.027344-9.808594-59.621094-2.816407-11.460937-7.148437-31.105469-11.425781-56.003906 3.03125-13.21875 7.671875-26.851563 13.980469-39.433594 19.046875-10.363281-25.683594-16.195312-53.699218-16.195312-79.773437 0-29.105469 7.472656-53.253907 21.375-71.460938 4.800781 6.242188 10.769531 12.015625 17.828125 17.175781zm120.660156-106.3125c.496094.234376 72.34375 37.535157 115.648438 23.167969-13.429688 19.796875-45.109376 29.191407-72.765626 33.640625-.035156.007813-28.847656 3.121094-39.121093 3.851563-5.425781.386719-9.632813 5.308593-9.25 10.699219.355469 4.96875 4.9375 9.28125 9.960937 9.28125.238282 0 15.480469-1.160157 21.445313-1.71875-14.933594 18.023437-42.597657 29.648437-73.496094 29.648437-33.871094 0-85.011719-18.425781-85.011719-59.429687 0-41.027344 51.375-59.433594 85.011719-59.433594 17.027344.003906 33.480469 3.5625 47.578125 10.292968zm-177.09375 129.527344c-4.359375-12.097656-6.765625-23.773437-6.765625-34.082031 0-22.351563 11.648437-43.671875 32.945313-60.640625-1.105469 4.675781-1.675782 9.46875-1.675782 14.335938 0 7.25 1.261719 14.332031 3.6875 21.113281-14.292968 15.839843-23.820312 35.890625-28.191406 59.273437zm6.15625 141.609375c19.058594-5.703125 48.480469-16.105469 76.746094-32.519531 24.914062-14.460938 37.183594-2.324219 38.800781-.527344 4.628906 5.144532 12.578125 4.878906 16.257813-1.199218.089843-.148438 9.902343-14.445313 41.261718 1.941406 32.175782 16.8125 58.523438 26.796875 75.082032 32.242187-3.296876 1.023438-7.492188 2.082031-12.8125 3.09375-17.199219 3.273438-41.171876 5-69.328126 5-12.492187 0-19.683593-5.339843-26.027343-10.054687-4.761719-3.539063-10.429688-7.011719-16.53125-7.378906-6.722657-.410157-12.554688 4.042968-17.640625 7.886718-6.210938 4.691406-12.632813 9.546875-22.386719 9.546875-43.859375 0-69.59375-4.074219-83.421875-8.03125zm183.199219 27.808594c-18.4375 19.535156-39.378907 30.34375-59.839844 30.34375-20.492187 0-41.460937-10.84375-59.917969-30.433594 6.425782.203125 13.085938.3125 19.976563.3125 16.464843 0 27.285156-8.179687 34.445312-13.589843 1.753907-1.324219 4.054688-3.0625 5.363281-3.753907 1.195313.648438 3.253907 2.175781 4.824219 3.34375 7.507813 5.574219 18.847657 14 37.953125 14 5.921875 0 11.652344-.078125 17.195313-.222656zm-143.949219 71.488281c15.597656-5.566406 26.949219-19.632812 28.695312-36.636718l.390626-3.808594c16.652343 12.140625 35.242187 19.300781 55.023437 19.300781 19.699219 0 38.21875-7.105469 54.820313-19.152344l.367187 3.582031c1.75 17.007813 13.105469 31.085938 28.703125 36.65625v14.835938c0 17.265625-34.496094 36.5-84 36.5s-84-19.234375-84-36.5zm320 91.277344h-472v-26c0-27.570312 22.429688-50 50-50 .46875 0 82-11.539062 82-11.539062v11.039062c0 19.789062 16.835938 33.800781 33.097656 41.84375 21.691406 10.730469 46.878906 14.65625 70.902344 14.65625 24.082031 0 49.152344-3.894531 70.902344-14.65625 15.957031-7.894531 33.097656-22.53125 33.097656-41.84375v-11.085938s81.527344 11.585938 82 11.585938c27.570312 0 50 22.429688 50 50zm0 0"/><path d="m193.488281 206c.226563 0 .449219-.007812.675781-.023438l9.335938-.621093v2.726562c0 5.523438 4.476562 10 10 10s10-4.476562 10-10v-4.058593l.664062-.042969c5.511719-.367188 9.679688-5.132813 9.3125-10.644531-.367187-5.511719-5.148437-9.710938-10.640624-9.3125l-30 2c-5.511719.367187-9.679688 5.132812-9.3125 10.640624.351562 5.285157 4.746093 9.335938 9.964843 9.335938zm0 0"/><path d="m287.835938 203.976562 2.371093.160157v3.945312c0 5.523438 4.476563 10 10 10 5.523438 0 10-4.476562 10-10v-2.613281l7.628907.507812c.226562.015626.449218.023438.675781.023438 5.21875 0 9.613281-4.050781 9.964843-9.335938.367188-5.511718-3.800781-10.273437-9.3125-10.640624l-30-2c-5.519531-.390626-10.273437 3.800781-10.640624 9.3125-.367188 5.511718 3.800781 10.273437 9.3125 10.640624zm0 0"/></svg>