<svg height="512pt" viewBox="-66 0 512 512" width="512pt" xmlns="http://www.w3.org/2000/svg"><path d="m379.464844 57.199219c0-22.40625-18.226563-40.632813-40.632813-40.632813h-75.332031v-9.066406c0-4.144531-3.355469-7.5-7.5-7.5h-132.53125c-4.144531 0-7.5 3.355469-7.5 7.5v9.066406h-75.335938c-22.40625 0-40.632812 18.226563-40.632812 40.632813v207.082031c0 4.144531 3.355469 7.5 7.5 7.5h17.351562v17.351562c0 4.144532 3.355469 7.5 7.5 7.5h17.347657v174.734376c0 22.40625 18.230469 40.632812 40.636719 40.632812h198.796874c22.40625 0 40.632813-18.226562 40.632813-40.632812v-16.550782c0-.007812 0-.015625 0-.019531 0-.007813 0-.015625 0-.019531v-158.144532h17.351563c4.144531 0 7.5-3.355468 7.5-7.5v-17.351562h17.351562c1.988281 0 3.894531-.789062 5.304688-2.195312 1.40625-1.40625 2.195312-3.3125 2.195312-5.304688zm-248.496094-42.199219h117.53125v18.132812h-51.265625v-.785156c0-4.140625-3.355469-7.5-7.5-7.5s-7.5 3.359375-7.5 7.5v.785156h-51.265625zm-91.117188 266.632812v-34.699218h9.847657v34.699218zm249.28125 215.367188h-198.796874c-14.136719 0-25.636719-11.5-25.636719-25.632812v-9.070313h25.636719c4.140624 0 7.5-3.359375 7.5-7.5 0-4.144531-3.359376-7.5-7.5-7.5h-25.636719v-233.496094h34.699219v67.046875c0 13.273438 10.796874 24.066406 24.066406 24.066406 13.269531 0 24.066406-10.796874 24.066406-24.066406v-16.566406c0-4.996094 4.066406-9.0625 9.066406-9.0625s9.066406 4.066406 9.066406 9.0625v41.417969c0 13.269531 10.796876 24.066406 24.066407 24.066406 13.273437 0 24.070312-10.796875 24.070312-24.066406v-91.898438h18.128907l.003906 42.199219c0 13.269531 10.796875 24.066406 24.066406 24.066406s24.066406-10.796875 24.066406-24.066406v-42.199219h34.695313v233.496094h-25.628907c-4.140624 0-7.5 3.355469-7.5 7.5 0 4.140625 3.359376 7.5 7.5 7.5h25.632813v9.070313c0 14.132812-11.496094 25.632812-25.632813 25.632812zm-90.332031-283.199219v91.898438c0 4.996093-4.066406 9.066406-9.066406 9.066406s-9.066406-4.070313-9.066406-9.066406l-.003907-41.417969c0-13.269531-10.792968-24.066406-24.0625-24.066406-13.273437 0-24.066406 10.796875-24.066406 24.066406v16.566406c0 5-4.066406 9.066406-9.066406 9.066406s-9.066406-4.066406-9.066406-9.066406v-67.046875zm48.132813 0h18.132812v42.199219c0 5-4.066406 9.066406-9.0625 9.066406-5 0-9.070312-4.066406-9.070312-9.066406zm92.683594 67.832031h-9.851563v-34.699218h9.851563zm15-24.851562v-17.347656c0-4.144532-3.355469-7.5-7.5-7.5h-17.351563v-18.132813h9.070313c4.140624 0 7.5-3.359375 7.5-7.5v-49.703125c0-4.144531-3.359376-7.5-7.5-7.5h-239.96875c-4.144532 0-7.5 3.355469-7.5 7.5 0 4.144532 3.355468 7.5 7.5 7.5h232.46875v34.703125h-9.03125c-.011719 0-.027344-.003906-.039063-.003906s-.027344.003906-.039063.003906h-49.621093c-.011719 0-.027344-.003906-.039063-.003906-.011718 0-.027344.003906-.039062.003906h-33.054688c-.015625 0-.027344-.003906-.039062-.003906-.015625 0-.027344.003906-.039063.003906h-33.054687c-.015625 0-.027344-.003906-.039063-.003906-.015625 0-.027343.003906-.039062.003906h-99.328125c-.011719 0-.023438-.003906-.039063-.003906-.011719 0-.023437.003906-.039062.003906h-49.621094c-.011719 0-.023437-.003906-.039063-.003906-.011718 0-.023437.003906-.039062.003906h-9.023438v-34.703125h20.683594c4.144532 0 7.5-3.355468 7.5-7.5 0-4.144531-3.355468-7.5-7.5-7.5h-28.183594c-4.140624 0-7.5 3.355469-7.5 7.5v49.703125c0 4.140625 3.359376 7.5 7.5 7.5h9.066407v18.132813h-17.347657c-4.144531 0-7.5 3.355468-7.5 7.5v17.351562h-9.851562v-199.585937c0-14.136719 11.496094-25.632813 25.632812-25.632813h75.335938v9.066406c0 4.140626 3.355469 7.5 7.5 7.5h132.53125c4.140625 0 7.5-3.359374 7.5-7.5v-9.066406h75.332031c14.132813 0 25.632813 11.496094 25.632813 25.632813v199.582031zm0 0"/></svg>