<svg height="496pt" viewBox="-34 0 496 496" width="496pt" xmlns="http://www.w3.org/2000/svg"><path d="m269.503906 216c0 30.871094-25.121094 56-56 56v16c39.695313 0 72-32.296875 72-72v-16h-16zm0 0"/><path d="m269.503906 168h16v16h-16zm0 0"/><path d="m427.007812 253.808594-20.511718-10.257813c-12.632813-6.320312-23.152344-16.0625-30.417969-28.167969-6.910156-11.519531-10.566406-24.71875-10.566406-38.160156v-25.222656c-.007813-83.816406-68.191407-152-152.007813-152s-152 68.183594-152 152v25.214844c0 13.441406-3.65625 26.632812-10.566406 38.160156-7.273438 12.113281-17.792969 21.847656-30.417969 28.167969l-20.519531 10.257812 11.558594 11.566407c17.203125 17.199218 39.34375 27.671874 63.234375 30.089843-5.679688 15.007813-15.570313 28.238281-28.480469 37.925781l-14.351562 10.777344 17.503906 12.496094c22.4375 16.03125 46.894531 29.136719 72.703125 39.433594l-69.414063 47.726562c-14.5625 10.007813-23.25 26.519532-23.25 44.183594v8h368v-8c0-17.664062-8.6875-34.175781-23.246094-44.183594l-69.417968-47.726562c25.808594-10.296875 50.265625-23.402344 72.695312-39.433594l17.503906-12.496094-14.351562-10.769531c-12.910156-9.6875-22.800781-22.917969-28.480469-37.925781 23.890625-2.417969 46.03125-12.878906 63.242188-30.089844zm-46.359374 226.191406h-334.289063c2.007813-9.257812 7.480469-17.519531 15.449219-23l83.03125-57.089844c17.953125-12.34375 28.664062-32.710937 28.664062-54.476562 0-7.121094-1.144531-14.152344-3.390625-20.90625l-5.617187-16.839844c14.617187 7.839844 31.296875 12.3125 49.007812 12.3125 17.710938 0 34.390625-4.472656 49.007813-12.320312l-5.617188 16.839843c-2.246093 6.761719-3.390625 13.792969-3.390625 20.914063 0 21.773437 10.710938 42.140625 28.664063 54.488281l83.03125 57.085937c7.96875 5.472657 13.433593 13.734376 15.449219 22.992188zm-167.144532-176c-48.519531 0-88-39.480469-88-88v-68.296875c14.921875 4.992187 44.207032 12.296875 88 12.296875 43.792969 0 73.082032-7.304688 88-12.296875v68.296875c0 48.519531-39.480468 88-88 88zm128-24h-10.246094l2.484376 9.9375c5.289062 21.160156 17.402343 40.132812 34.28125 53.855469-24.160157 17.230469-50.726563 31.03125-78.933594 41.253906-12.273438-9.445313-19.585938-24.023437-19.585938-39.613281 0-5.402344.863282-10.730469 2.566406-15.839844l12.683594-38.035156c20.109375-18.984375 32.75-45.789063 32.75-75.558594l-.023437-92.839844-11.527344 5.679688c-.3125.144531-31.503906 15.160156-92.449219 15.160156-60.945312 0-92.136718-15.015625-92.425781-15.160156l-11.574219-5.785156v92.945312c0 29.769531 12.640625 56.574219 32.753906 75.550781l12.679688 38.035157c1.703125 5.117187 2.566406 10.445312 2.566406 15.839843 0 15.597657-7.3125 30.167969-19.582031 39.621094-28.203125-10.222656-54.769531-24.023437-78.9375-41.253906 16.878906-13.730469 28.992187-32.703125 34.28125-53.855469l2.488281-9.9375h-10.25c-21.679687 0-42.167968-7.734375-58.320312-21.894531l.496094-.242188c15.34375-7.6875 28.136718-19.527343 36.976562-34.246093 8.40625-14.023438 12.847656-30.066407 12.847656-46.402344v-25.214844c0-74.992188 61.007813-136 136-136 74.992188 0 136 61.007812 136 136v25.214844c0 16.335937 4.441406 32.378906 12.847656 46.394531 8.839844 14.71875 21.625 26.558594 36.976563 34.246094l.488281.242187c-16.144531 14.167969-36.632812 21.902344-58.3125 21.902344zm0 0"/></svg>